<?xml version="1.0" standalone="no"?>
<!DOCTYPE svg PUBLIC "-//W3C//DTD SVG 20010904//EN"
 "http://www.w3.org/TR/2001/REC-SVG-20010904/DTD/svg10.dtd">
<svg version="1.0" xmlns="http://www.w3.org/2000/svg"
 width="50.000000pt" height="50.000000pt" viewBox="0 0 50.000000 50.000000"
 preserveAspectRatio="xMidYMid meet">

<g transform="translate(0.000000,50.000000) scale(0.100000,-0.100000)"
fill="#000000" stroke="none">
<path d="M160 491 c0 -6 -24 -11 -52 -13 l-53 -3 0 -235 0 -235 192 -3 193 -2
5 22 c3 13 4 120 3 238 l-3 215 -52 3 c-29 2 -53 7 -53 13 0 5 -40 9 -90 9
-50 0 -90 -4 -90 -9z m160 -41 l0 -30 -70 0 -70 0 0 30 0 30 70 0 70 0 0 -30z
m-160 0 c0 -5 -16 -10 -35 -10 l-35 0 0 -200 0 -200 160 0 160 0 0 200 0 200
-35 0 c-19 0 -35 5 -35 10 0 6 20 10 45 10 l45 0 0 -220 0 -220 -180 0 -180 0
0 220 0 220 45 0 c25 0 45 -4 45 -10z m0 -40 c0 -6 37 -10 90 -10 53 0 90 4
90 10 0 6 11 10 25 10 l25 0 0 -180 0 -180 -140 0 -140 0 0 180 0 180 25 0
c14 0 25 -4 25 -10z"/>
<path d="M150 290 l0 -40 40 0 40 0 0 40 0 40 -40 0 -40 0 0 -40z m60 0 c0
-13 -7 -20 -20 -20 -13 0 -20 7 -20 20 0 13 7 20 20 20 13 0 20 -7 20 -20z"/>
<path d="M260 290 c0 -5 20 -10 45 -10 25 0 45 5 45 10 0 6 -20 10 -45 10 -25
0 -45 -4 -45 -10z"/>
<path d="M150 160 l0 -40 40 0 40 0 0 40 0 40 -40 0 -40 0 0 -40z m60 0 c0
-13 -7 -20 -20 -20 -13 0 -20 7 -20 20 0 13 7 20 20 20 13 0 20 -7 20 -20z"/>
<path d="M180 160 c0 -5 5 -10 10 -10 6 0 10 5 10 10 0 6 -4 10 -10 10 -5 0
-10 -4 -10 -10z"/>
<path d="M260 160 c0 -5 20 -10 45 -10 25 0 45 5 45 10 0 6 -20 10 -45 10 -25
0 -45 -4 -45 -10z"/>
</g>
</svg>
